<?xml version="1.0" encoding="UTF-8"?>
<svg width="38px" height="52px" viewBox="0 0 38 52" version="1.1" xmlns="http://www.w3.org/2000/svg" xmlns:xlink="http://www.w3.org/1999/xlink">
    <title>Group 15</title>
    <g id="Design" stroke="none" stroke-width="1" fill="none" fill-rule="evenodd">
        <g id="Home-Page" transform="translate(-219.000000, -1644.000000)" fill-rule="nonzero" stroke-width="0.5">
            <g id="Group-35" transform="translate(165.000000, 1353.000000)">
                <g id="Group-40" transform="translate(0.000000, 292.000000)">
                    <g id="Group-15" transform="translate(55.000000, 0.000000)">
                        <g id="medal" fill="#0081C8" stroke="#0081C8">
                            <path d="M11.3574686,49.9304868 L11.3475031,49.9304868 C11.0618719,49.9265312 10.8062721,49.7522076 10.6983205,49.4877322 L8.40553887,43.8714492 L2.89460572,46.3863197 C2.62571561,46.5091126 2.30891671,46.4529424 2.09863417,46.2451896 C1.88835163,46.0374367 1.82835153,45.7213408 1.94788121,45.4509843 L7.94783673,31.8758091 C8.1068574,31.5160962 8.5273741,31.3534029 8.88708708,31.5124236 C9.24680006,31.6714442 9.40949334,32.0919609 9.25047269,32.4516739 L4.00860861,44.3134913 L8.49309309,42.268424 C8.66941416,42.1879741 8.87091557,42.1828971 9.05106433,42.2543655 C9.23121309,42.3258339 9.37443212,42.467668 9.44764765,42.6471138 L11.3873651,47.3971082 L17.0107663,34.6448004 C17.1693939,34.2850874 17.5895919,34.1220754 17.9493048,34.280703 C18.3090178,34.4393305 18.4720298,34.8595285 18.3134023,35.2192415 L12.010922,49.5033923 C11.8975542,49.7631516 11.6408887,49.9309067 11.3574686,49.9304868 Z" id="Path"></path>
                            <path d="M14.2047603,36.7162325 C13.9748169,36.7172606 13.7457488,36.6878193 13.5235458,36.6286509 C12.4607941,36.3439217 11.7503948,35.4185519 11.1232788,34.5999555 C10.7801624,34.0764071 10.3462484,33.6183867 9.84199755,33.2474919 C9.25707412,32.9874831 8.63021269,32.8346254 7.99125792,32.7961962 C6.93064175,32.6538316 5.83372261,32.5071961 5.0727839,31.7448337 C4.31184518,30.9824714 4.16236236,29.8841286 4.0207096,28.8228006 C3.98117646,28.1851576 3.82835681,27.5596577 3.56941386,26.9756201 C3.19794827,26.4718735 2.740026,26.0380524 2.21695028,25.6943388 C1.39835391,25.0672228 0.471560449,24.3568235 0.187543099,23.2947837 C-0.0850850851,22.2747414 0.329907685,21.2625292 0.734223112,20.2844845 C1.02645306,19.6984269 1.21067473,19.0645018 1.27805583,18.413102 C1.21057556,17.7619486 1.02635676,17.1282745 0.734223112,16.5424313 C0.331331331,15.5643866 -0.0850850851,14.5493271 0.187543099,13.5321321 C0.472272272,12.4700923 1.39764209,11.759693 2.21695028,11.132577 C2.74053112,10.7877687 3.19850548,10.352452 3.56941386,9.8470248 C3.82852229,9.2633313 3.98112064,8.63799148 4.01999778,8.00055611 C4.16236236,6.93922812 4.30472695,5.84230898 5.07207207,5.08208208 C5.83941719,4.32185519 6.9320654,4.17237237 7.9905461,4.03000779 C8.62950087,3.99157859 9.2563623,3.83872084 9.84128573,3.57871205 C10.3452634,3.207508 10.779127,2.74954087 11.122567,2.22624847 C11.7489712,1.4076521 12.4600823,0.480858636 13.5221221,0.196841286 C14.5421644,-0.0786341897 15.5543766,0.339205873 16.5324213,0.743521299 C17.1192287,1.0330912 17.7533739,1.21465444 18.4045156,1.27952397 C19.0558643,1.21233565 19.689782,1.02835728 20.2758981,0.73640307 C21.2539428,0.333511289 22.2690023,-0.0836169503 23.2854855,0.189011233 C24.3482371,0.473740407 25.0586364,1.39911022 25.6857524,2.21841842 C26.0290968,2.74178649 26.4629753,3.19976933 26.9670337,3.57088199 C27.5507844,3.8305554 28.1764611,3.98317712 28.8142142,4.02146591 C29.8748304,4.1638305 30.9717495,4.31046602 31.7326882,5.07354021 C32.493627,5.83661439 32.6431098,6.93424536 32.7847625,7.99201424 C32.823786,8.63087928 32.9766183,9.25763655 33.2360583,9.84275386 C33.6071709,10.3468123 34.0651538,10.7806908 34.5885219,11.1240351 C35.4071182,11.7511512 36.3339117,12.4622623 36.617929,13.5235903 C36.8905572,14.5443443 36.4755645,15.5558447 36.071249,16.5346013 C35.7791154,17.1204445 35.5948966,17.7541185 35.5274163,18.4052719 C35.5947127,19.0564613 35.7789409,19.6901676 36.071249,20.2759426 C36.4741408,21.2546991 36.8905572,22.2690468 36.617929,23.2869536 C36.3331999,24.3482816 35.4078301,25.0593927 34.5885219,25.6865087 C34.0651538,26.0298531 33.6071709,26.4637316 33.2360583,26.96779 C32.9771242,27.5515429 32.8245336,28.1768509 32.7854744,28.8142587 C32.6431098,29.8755867 32.4971861,30.9732177 31.7334001,31.7362918 C30.9696141,32.499366 29.8734067,32.6460016 28.814926,32.7876543 C28.1771309,32.8266996 27.5515044,32.9797913 26.9677455,33.2396619 C26.4637678,33.6108659 26.0299042,34.0688331 25.6864642,34.5921255 C25.0600601,35.41001 24.3489489,36.3375153 23.2869091,36.6215326 C22.2654432,36.8955845 21.2546547,36.4791681 20.2766099,36.0748526 C19.6899264,35.7849623 19.0557219,35.603382 18.4045156,35.53885 C17.7531011,35.6057006 17.1191241,35.7896962 16.5331331,36.0819709 C15.8049414,36.4409485 15.0144131,36.6562835 14.2047603,36.7162325 L14.2047603,36.7162325 Z M14.2047603,1.52648167 C14.0988951,1.52561716 13.9933645,1.53853927 13.8908464,1.56496496 C13.2964743,1.72370148 12.7896563,2.38498498 12.2536537,3.08470693 C11.8024227,3.76126784 11.2244638,4.34406121 10.551685,4.80091202 C9.80926327,5.16229975 9.00378785,5.37623905 8.179891,5.43087532 C7.43067906,5.43769368 6.69970809,5.66279811 6.07645423,6.07863419 C5.66012744,6.70165479 5.4349768,7.43277582 5.42869536,8.18207096 C5.37404849,9.00565395 5.16036094,9.81084991 4.79944389,10.5531532 C4.34143527,11.2261762 3.75743018,11.8041382 3.07967968,12.2551218 C2.37995774,12.7918363 1.71938605,13.2986542 1.55993772,13.8923145 C1.51734095,14.62481 1.68662107,15.3540737 2.04753643,15.992904 C2.41905217,16.7474239 2.64026556,17.5670013 2.69885441,18.4059838 C2.64046338,19.2449994 2.41923986,20.0646144 2.04753643,20.8190635 C1.68633556,21.4580417 1.51704042,22.1876173 1.55993772,22.9203648 C1.71938605,23.514737 2.37995774,24.0208431 3.07967968,24.5575576 C3.75743018,25.0085411 4.34143527,25.5865031 4.79944389,26.2595262 C5.1606834,27.0017095 5.37438798,27.8069697 5.42869536,28.6306084 C5.43583362,29.3800974 5.66117193,30.1112719 6.07716605,30.734757 C6.70044467,31.1504545 7.43144424,31.3753203 8.18060283,31.381804 C9.00427194,31.4364419 9.80951403,31.6503834 10.551685,32.0117673 C11.2249856,32.4692059 11.8028148,33.0533211 12.2529418,33.7315315 C12.7896563,34.4305417 13.2964743,35.0918252 13.8901346,35.2505617 C14.6223227,35.292214 15.3510955,35.1229904 15.9900122,34.762963 C16.745248,34.3925703 17.565301,34.1725679 18.4045156,34.1152041 C19.2436804,34.1735507 20.0634922,34.3945204 20.8183072,34.7658103 C21.4568264,35.1275244 22.1863287,35.2968599 22.9188967,35.253409 C23.5132688,35.0946725 24.0200868,34.4333889 24.5560894,33.733667 C25.006627,33.0559883 25.5843923,32.4721795 26.2573462,32.0146146 C26.999724,31.6529975 27.8051983,31.4388167 28.6291403,31.3839395 C29.3783627,31.377869 30.1094778,31.1529676 30.732577,30.7368924 C31.1486393,30.1137461 31.373765,29.382706 31.3803359,28.6334557 C31.4348936,27.809858 31.6485856,27.0046452 32.0095874,26.2623735 C32.4673717,25.588967 33.0514086,25.0107318 33.7293516,24.559693 C34.4290735,24.0229785 35.0896452,23.5168724 35.2490935,22.9225003 C35.2916903,22.1900048 35.1224102,21.4607411 34.7614948,20.8219108 C34.3897914,20.0674617 34.1685679,19.2478467 34.1101768,18.4088311 C34.1687657,17.5698486 34.3899791,16.7502712 34.7614948,15.9957513 C35.1227517,15.357054 35.2920555,14.6276884 35.2490935,13.8951618 C35.0896452,13.3007897 34.4290735,12.7946836 33.7293516,12.2579691 C33.0516011,11.8069855 32.467596,11.2290235 32.0095874,10.5560004 C31.6484328,9.81378551 31.4347328,9.0085423 31.3803359,8.18491825 C31.3733211,7.43541007 31.1479722,6.70420106 30.7318652,6.08076966 C30.108766,5.66469451 29.3776509,5.43979312 28.6284284,5.43372261 C27.8046234,5.37785327 26.9994364,5.16295946 26.2573462,4.80091202 C25.5843712,4.34308218 25.0066112,3.75903698 24.5560894,3.08114781 C24.0193749,2.38142587 23.512557,1.72085419 22.9188967,1.56140585 C22.1865802,1.5192848 21.4576124,1.68880071 20.819019,2.04971638 C20.0640651,2.42175811 19.2440582,2.64368213 18.4045156,2.70316984 C17.5654081,2.64448284 16.7456606,2.42353057 15.9907241,2.05256367 C15.4309672,1.77356153 14.8263826,1.59548739 14.2047603,1.52648167 Z" id="Shape"></path>
                            <path d="M18.4045156,30.5575131 C13.4907677,30.557801 9.06069889,27.5980522 7.18008946,23.0584236 C5.29948002,18.5187951 6.33869398,13.2933136 9.8131367,9.81866732 C13.2875794,6.34402101 18.513,5.30450087 23.0527387,7.18484431 C27.5924774,9.06518774 30.5524858,13.4950831 30.5524858,18.4088311 C30.545033,25.1149955 25.1106797,30.5496673 18.4045156,30.5575131 L18.4045156,30.5575131 Z M18.4045156,7.68450673 C14.0665139,7.68421882 10.155513,10.2971845 8.49529865,14.3049204 C6.83508426,18.3126563 7.75262759,22.9258582 10.820058,25.9932886 C13.8874885,29.0607191 18.5006903,29.9782624 22.5084263,28.318048 C26.5161622,26.6578336 29.1291279,22.7468328 29.12884,18.4088311 C29.1221712,12.4887148 24.3246319,7.69117552 18.4045156,7.68450673 Z" id="Shape"></path>
                            <path d="M25.4515627,49.930486 C25.1689177,49.9300577 24.9133025,49.7624412 24.8002447,49.5033923 L18.4963408,35.2192415 C18.3377133,34.8595285 18.5007253,34.4393305 18.8604382,34.280703 C19.2201512,34.1220754 19.6403492,34.2850874 19.7989768,34.6448004 L25.4223779,47.3971082 L27.3620954,42.6471138 C27.435311,42.467668 27.57853,42.3258339 27.7586787,42.2543655 C27.9388275,42.1828971 28.1403289,42.1879741 28.31665,42.268424 L32.8011345,44.3134913 L27.5585586,32.4516739 C27.4556902,32.2189804 27.4847765,31.9490831 27.6348608,31.7436498 C27.7849451,31.5382164 28.0332261,31.4284572 28.2861788,31.4557174 C28.5391314,31.4829776 28.7583262,31.6431156 28.8611945,31.8758091 L34.8590146,45.4509843 C34.9785443,45.7213408 34.9185442,46.0374367 34.7082616,46.2451896 C34.4979791,46.4529424 34.1811802,46.5091126 33.9122901,46.3863197 L28.4013569,43.8714492 L26.1085752,49.4877322 C26.0006237,49.7522076 25.7450239,49.9265312 25.4593927,49.930486 L25.4515627,49.930486 Z" id="Path"></path>
                        </g>
                        <path d="M22.2981871,24.74975 C22.1828312,24.74975 22.0691993,24.7217508 21.9671894,24.6678901 L18.4045156,22.795084 L14.845401,24.6678901 C14.6056452,24.7935654 14.3153562,24.7723737 14.0963942,24.613211 C13.8774323,24.4540483 13.7676984,24.1844647 13.8132577,23.9176287 L14.4937604,19.9513514 L11.6115894,17.1417862 C11.4174092,16.9525984 11.3475539,16.6695339 11.4314239,16.4117282 C11.5152938,16.1539225 11.738326,15.9661408 12.0066511,15.9274163 L15.9893004,15.3494161 L17.7688577,11.7404738 C17.9022149,11.5150106 18.1447011,11.3767088 18.4066511,11.3767088 C18.6686011,11.3767088 18.9110873,11.5150106 19.0444444,11.7404738 L20.8240018,15.3494161 L24.8066511,15.9274163 C25.0749762,15.9661408 25.2980084,16.1539225 25.3818783,16.4117282 C25.4657483,16.6695339 25.3958929,16.9525984 25.2017128,17.1417862 L22.3195418,19.9513514 L23.0000445,23.9176287 C23.0354916,24.1243578 22.9779603,24.3361973 22.8428089,24.4965953 C22.7076575,24.6569932 22.5086449,24.74975 22.2988989,24.74975 L22.2981871,24.74975 Z M18.4045156,21.2796129 C18.5197913,21.2794616 18.6333791,21.3073089 18.7355133,21.3607608 L21.3528862,22.73885 L20.8546102,19.8253587 C20.8151111,19.5944296 20.891774,19.3588511 21.0596152,19.1953954 L23.1758648,17.1311089 L20.2509843,16.7040151 C20.0189786,16.6701969 19.8185047,16.5243009 19.7149816,16.3139362 L18.4045156,13.6638194 L17.0961851,16.314648 C16.9926621,16.5250127 16.7921882,16.6709087 16.5601824,16.7047269 L13.635302,17.1318207 L15.7515516,19.1961072 C15.9193928,19.3595629 15.9960556,19.5951414 15.9565566,19.8260705 L15.4582805,22.7395618 L18.0756534,21.3636081 C18.1768976,21.3095016 18.2897257,21.2806841 18.4045156,21.2796129 L18.4045156,21.2796129 Z" id="Shape" stroke="#FA8D29" fill="#FA8D29"></path>
                    </g>
                </g>
            </g>
        </g>
    </g>
</svg>